<mxfile host="app.diagrams.net" modified="2020-10-13T21:05:47.606Z" agent="5.0 (Windows NT 10.0; Win64; x64) AppleWebKit/537.36 (KHTML, like Gecko) Chrome/85.0.4183.121 Safari/537.36" etag="hrcLOlgv3xKb1s3JXbaN" version="13.7.9" type="github">
  <diagram name="Page-1" id="e7e014a7-5840-1c2e-5031-d8a46d1fe8dd">
    <mxGraphModel dx="979" dy="402" grid="1" gridSize="10" guides="1" tooltips="1" connect="1" arrows="1" fold="1" page="1" pageScale="1" pageWidth="1169" pageHeight="826" background="#ffffff" math="0" shadow="0">
      <root>
        <mxCell id="0" />
        <mxCell id="1" parent="0" />
        <mxCell id="2" value="Teacher" style="swimlane;whiteSpace=wrap;startSize=23;" parent="1" vertex="1">
          <mxGeometry x="165" y="130" width="280" height="570" as="geometry" />
        </mxCell>
        <mxCell id="5" value="" style="ellipse;shape=startState;fillColor=#000000;strokeColor=#ff0000;" parent="2" vertex="1">
          <mxGeometry x="100" y="40" width="30" height="30" as="geometry" />
        </mxCell>
        <mxCell id="7" value="input questions" style="" parent="2" vertex="1">
          <mxGeometry x="60" y="110" width="110" height="50" as="geometry" />
        </mxCell>
        <mxCell id="8" value="input answers" style="" parent="2" vertex="1">
          <mxGeometry x="60" y="220" width="110" height="50" as="geometry" />
        </mxCell>
        <mxCell id="4cT7-BZAZQRfFuxsMrZV-42" style="edgeStyle=orthogonalEdgeStyle;rounded=0;orthogonalLoop=1;jettySize=auto;html=1;exitX=0.5;exitY=1;exitDx=0;exitDy=0;" parent="2" source="7" target="8" edge="1">
          <mxGeometry relative="1" as="geometry">
            <mxPoint x="115.5" y="212" as="targetPoint" />
          </mxGeometry>
        </mxCell>
        <mxCell id="3" value="System" style="swimlane;whiteSpace=wrap" parent="1" vertex="1">
          <mxGeometry x="445" y="130" width="280" height="570" as="geometry" />
        </mxCell>
        <mxCell id="16" value="generate&#xa;quiz (q&amp;a)" style="" parent="3" vertex="1">
          <mxGeometry x="80" y="110" width="110" height="50" as="geometry" />
        </mxCell>
        <mxCell id="30" value="Question generate" style="" parent="3" vertex="1">
          <mxGeometry x="135" y="180" width="125" height="50" as="geometry" />
        </mxCell>
        <mxCell id="4cT7-BZAZQRfFuxsMrZV-52" style="edgeStyle=orthogonalEdgeStyle;rounded=0;orthogonalLoop=1;jettySize=auto;html=1;entryX=0.424;entryY=1.004;entryDx=0;entryDy=0;entryPerimeter=0;exitX=0.5;exitY=0;exitDx=0;exitDy=0;" parent="3" source="4cT7-BZAZQRfFuxsMrZV-56" target="30" edge="1">
          <mxGeometry relative="1" as="geometry" />
        </mxCell>
        <mxCell id="4cT7-BZAZQRfFuxsMrZV-58" style="edgeStyle=orthogonalEdgeStyle;rounded=0;orthogonalLoop=1;jettySize=auto;html=1;exitX=0;exitY=0.5;exitDx=0;exitDy=0;entryX=1;entryY=0.5;entryDx=0;entryDy=0;" parent="3" source="4cT7-BZAZQRfFuxsMrZV-51" target="4cT7-BZAZQRfFuxsMrZV-56" edge="1">
          <mxGeometry relative="1" as="geometry" />
        </mxCell>
        <mxCell id="4cT7-BZAZQRfFuxsMrZV-51" value="parse submit" style="rhombus;whiteSpace=wrap;html=1;fontSize=12;" parent="3" vertex="1">
          <mxGeometry x="190" y="294" width="90" height="58" as="geometry" />
        </mxCell>
        <mxCell id="4cT7-BZAZQRfFuxsMrZV-53" value="Yes" style="text;html=1;strokeColor=none;fillColor=none;align=center;verticalAlign=middle;whiteSpace=wrap;rounded=0;" parent="3" vertex="1">
          <mxGeometry x="135" y="357" width="40" height="20" as="geometry" />
        </mxCell>
        <mxCell id="4cT7-BZAZQRfFuxsMrZV-56" value="last question?" style="rhombus;whiteSpace=wrap;html=1;" parent="3" vertex="1">
          <mxGeometry x="30" y="289" width="85" height="68" as="geometry" />
        </mxCell>
        <mxCell id="4cT7-BZAZQRfFuxsMrZV-62" value="answers submit" style="whiteSpace=wrap;html=1;" parent="3" vertex="1">
          <mxGeometry x="160" y="390" width="100" height="60" as="geometry" />
        </mxCell>
        <mxCell id="4cT7-BZAZQRfFuxsMrZV-66" value="answers compared" style="whiteSpace=wrap;html=1;" parent="3" vertex="1">
          <mxGeometry x="30" y="390" width="100" height="60" as="geometry" />
        </mxCell>
        <mxCell id="4cT7-BZAZQRfFuxsMrZV-67" value="" style="endArrow=classic;html=1;exitX=0;exitY=0.5;exitDx=0;exitDy=0;entryX=1;entryY=0.5;entryDx=0;entryDy=0;" parent="3" source="4cT7-BZAZQRfFuxsMrZV-62" target="4cT7-BZAZQRfFuxsMrZV-66" edge="1">
          <mxGeometry width="50" height="50" relative="1" as="geometry">
            <mxPoint x="25" y="380" as="sourcePoint" />
            <mxPoint x="75" y="330" as="targetPoint" />
          </mxGeometry>
        </mxCell>
        <mxCell id="4cT7-BZAZQRfFuxsMrZV-69" value="No" style="text;html=1;strokeColor=none;fillColor=none;align=center;verticalAlign=middle;whiteSpace=wrap;rounded=0;" parent="3" vertex="1">
          <mxGeometry x="75" y="240" width="40" height="20" as="geometry" />
        </mxCell>
        <mxCell id="4cT7-BZAZQRfFuxsMrZV-70" value="Results stored&lt;br&gt;w/ percentage/&lt;br&gt;grade" style="whiteSpace=wrap;html=1;" parent="3" vertex="1">
          <mxGeometry x="85" y="470" width="100" height="60" as="geometry" />
        </mxCell>
        <mxCell id="1X6NKsJPYbzDXOI8IXbq-30" value="" style="endArrow=classic;html=1;exitX=0.5;exitY=1;exitDx=0;exitDy=0;entryX=0.5;entryY=0;entryDx=0;entryDy=0;" edge="1" parent="3" source="4cT7-BZAZQRfFuxsMrZV-66" target="4cT7-BZAZQRfFuxsMrZV-70">
          <mxGeometry width="50" height="50" relative="1" as="geometry">
            <mxPoint x="25" y="470" as="sourcePoint" />
            <mxPoint x="75" y="420" as="targetPoint" />
            <Array as="points">
              <mxPoint x="135" y="450" />
            </Array>
          </mxGeometry>
        </mxCell>
        <mxCell id="4" value="Student" style="swimlane;whiteSpace=wrap;startSize=23;" parent="1" vertex="1">
          <mxGeometry x="725" y="130" width="280" height="570" as="geometry" />
        </mxCell>
        <mxCell id="4cT7-BZAZQRfFuxsMrZV-44" value="Initiate quiz" style="whiteSpace=wrap;html=1;" parent="4" vertex="1">
          <mxGeometry x="65.5" y="102" width="120" height="60" as="geometry" />
        </mxCell>
        <mxCell id="4cT7-BZAZQRfFuxsMrZV-47" value="Answer" style="whiteSpace=wrap;html=1;" parent="4" vertex="1">
          <mxGeometry x="85.5" y="202" width="120" height="48" as="geometry" />
        </mxCell>
        <mxCell id="4cT7-BZAZQRfFuxsMrZV-55" value="no submit" style="text;html=1;strokeColor=none;fillColor=none;align=center;verticalAlign=middle;whiteSpace=wrap;rounded=0;" parent="4" vertex="1">
          <mxGeometry x="35.5" y="285" width="40" height="20" as="geometry" />
        </mxCell>
        <mxCell id="4cT7-BZAZQRfFuxsMrZV-60" value="submit quiz" style="whiteSpace=wrap;html=1;" parent="4" vertex="1">
          <mxGeometry x="75.5" y="340" width="94.5" height="48" as="geometry" />
        </mxCell>
        <mxCell id="4cT7-BZAZQRfFuxsMrZV-73" value="Results given" style="whiteSpace=wrap;html=1;" parent="4" vertex="1">
          <mxGeometry x="62.75" y="480" width="120" height="60" as="geometry" />
        </mxCell>
        <mxCell id="4cT7-BZAZQRfFuxsMrZV-41" style="edgeStyle=orthogonalEdgeStyle;rounded=0;orthogonalLoop=1;jettySize=auto;html=1;entryX=0;entryY=0.5;entryDx=0;entryDy=0;" parent="1" source="8" target="16" edge="1">
          <mxGeometry relative="1" as="geometry" />
        </mxCell>
        <mxCell id="4cT7-BZAZQRfFuxsMrZV-43" style="edgeStyle=orthogonalEdgeStyle;rounded=0;orthogonalLoop=1;jettySize=auto;html=1;exitX=0.5;exitY=1;exitDx=0;exitDy=0;" parent="1" source="5" edge="1">
          <mxGeometry relative="1" as="geometry">
            <mxPoint x="280" y="230" as="targetPoint" />
          </mxGeometry>
        </mxCell>
        <mxCell id="4cT7-BZAZQRfFuxsMrZV-45" style="edgeStyle=orthogonalEdgeStyle;rounded=0;orthogonalLoop=1;jettySize=auto;html=1;entryX=0;entryY=0.5;entryDx=0;entryDy=0;" parent="1" source="16" target="4cT7-BZAZQRfFuxsMrZV-44" edge="1">
          <mxGeometry relative="1" as="geometry">
            <mxPoint x="790" y="373" as="targetPoint" />
            <Array as="points">
              <mxPoint x="790" y="265" />
            </Array>
          </mxGeometry>
        </mxCell>
        <mxCell id="4cT7-BZAZQRfFuxsMrZV-46" style="edgeStyle=orthogonalEdgeStyle;rounded=0;orthogonalLoop=1;jettySize=auto;html=1;exitX=0.5;exitY=1;exitDx=0;exitDy=0;" parent="1" source="4cT7-BZAZQRfFuxsMrZV-44" target="30" edge="1">
          <mxGeometry relative="1" as="geometry" />
        </mxCell>
        <mxCell id="4cT7-BZAZQRfFuxsMrZV-48" style="edgeStyle=orthogonalEdgeStyle;rounded=0;orthogonalLoop=1;jettySize=auto;html=1;" parent="1" source="30" target="4cT7-BZAZQRfFuxsMrZV-47" edge="1">
          <mxGeometry relative="1" as="geometry" />
        </mxCell>
        <mxCell id="4cT7-BZAZQRfFuxsMrZV-49" style="edgeStyle=orthogonalEdgeStyle;rounded=0;orthogonalLoop=1;jettySize=auto;html=1;" parent="1" source="4cT7-BZAZQRfFuxsMrZV-47" edge="1">
          <mxGeometry relative="1" as="geometry">
            <mxPoint x="730" y="450" as="targetPoint" />
            <Array as="points">
              <mxPoint x="860" y="450" />
            </Array>
          </mxGeometry>
        </mxCell>
        <mxCell id="4cT7-BZAZQRfFuxsMrZV-54" value="" style="endArrow=classic;html=1;exitX=1;exitY=0;exitDx=0;exitDy=0;entryX=0.333;entryY=1.042;entryDx=0;entryDy=0;entryPerimeter=0;" parent="1" source="4cT7-BZAZQRfFuxsMrZV-51" target="4cT7-BZAZQRfFuxsMrZV-47" edge="1">
          <mxGeometry width="50" height="50" relative="1" as="geometry">
            <mxPoint x="470" y="520" as="sourcePoint" />
            <mxPoint x="520" y="470" as="targetPoint" />
            <Array as="points">
              <mxPoint x="850" y="439" />
            </Array>
          </mxGeometry>
        </mxCell>
        <mxCell id="4cT7-BZAZQRfFuxsMrZV-61" style="edgeStyle=orthogonalEdgeStyle;rounded=0;orthogonalLoop=1;jettySize=auto;html=1;entryX=0;entryY=0.5;entryDx=0;entryDy=0;" parent="1" source="4cT7-BZAZQRfFuxsMrZV-56" target="4cT7-BZAZQRfFuxsMrZV-60" edge="1">
          <mxGeometry relative="1" as="geometry">
            <mxPoint x="550" y="540" as="targetPoint" />
            <Array as="points">
              <mxPoint x="670" y="484" />
              <mxPoint x="670" y="484" />
            </Array>
          </mxGeometry>
        </mxCell>
        <mxCell id="4cT7-BZAZQRfFuxsMrZV-63" value="" style="endArrow=classic;html=1;exitX=0.5;exitY=1;exitDx=0;exitDy=0;entryX=1;entryY=0.5;entryDx=0;entryDy=0;" parent="1" source="4cT7-BZAZQRfFuxsMrZV-60" target="4cT7-BZAZQRfFuxsMrZV-62" edge="1">
          <mxGeometry width="50" height="50" relative="1" as="geometry">
            <mxPoint x="470" y="520" as="sourcePoint" />
            <mxPoint x="520" y="470" as="targetPoint" />
            <Array as="points">
              <mxPoint x="848" y="550" />
            </Array>
          </mxGeometry>
        </mxCell>
        <mxCell id="4cT7-BZAZQRfFuxsMrZV-65" value="" style="endArrow=classic;startArrow=classic;html=1;exitX=0.5;exitY=1;exitDx=0;exitDy=0;" parent="1" source="8" edge="1">
          <mxGeometry width="50" height="50" relative="1" as="geometry">
            <mxPoint x="470" y="520" as="sourcePoint" />
            <mxPoint x="470" y="550" as="targetPoint" />
            <Array as="points">
              <mxPoint x="280" y="550" />
            </Array>
          </mxGeometry>
        </mxCell>
        <mxCell id="4cT7-BZAZQRfFuxsMrZV-71" value="Results given and stored" style="whiteSpace=wrap;html=1;" parent="1" vertex="1">
          <mxGeometry x="250" y="600" width="120" height="60" as="geometry" />
        </mxCell>
        <mxCell id="4cT7-BZAZQRfFuxsMrZV-72" value="" style="endArrow=classic;html=1;exitX=0;exitY=0.5;exitDx=0;exitDy=0;entryX=1;entryY=0.5;entryDx=0;entryDy=0;" parent="1" source="4cT7-BZAZQRfFuxsMrZV-70" target="4cT7-BZAZQRfFuxsMrZV-71" edge="1">
          <mxGeometry width="50" height="50" relative="1" as="geometry">
            <mxPoint x="575" y="640" as="sourcePoint" />
            <mxPoint x="625" y="590" as="targetPoint" />
          </mxGeometry>
        </mxCell>
        <mxCell id="4cT7-BZAZQRfFuxsMrZV-74" value="" style="endArrow=classic;html=1;exitX=1;exitY=0.5;exitDx=0;exitDy=0;" parent="1" source="4cT7-BZAZQRfFuxsMrZV-70" edge="1">
          <mxGeometry width="50" height="50" relative="1" as="geometry">
            <mxPoint x="470" y="590" as="sourcePoint" />
            <mxPoint x="790" y="630" as="targetPoint" />
          </mxGeometry>
        </mxCell>
      </root>
    </mxGraphModel>
  </diagram>
</mxfile>
